<svg width="41px" height="60px" viewBox="0 0 41 60" version="1.1" xmlns="http://www.w3.org/2000/svg" xmlns:xlink="http://www.w3.org/1999/xlink">
    <g id="Page-1" stroke="none" stroke-width="1" fill="none" fill-rule="evenodd">
        <g id="Version1" transform="translate(-403.000000, -857.000000)">
            <g id="eth备份-10" transform="translate(403.000000, 857.000000)">
                <polygon id="Path-12" fill="#F0F4FF" points="20 0 20 43 0 32.1778457"></polygon>
                <polygon id="Path-12-Copy" fill="#BECCFA" transform="translate(30.500000, 21.500000) scale(-1, 1) translate(-30.500000, -21.500000) " points="41 0 41 43 20 32.152837"></polygon>
                <polygon id="Path-13" fill="#F0F4FF" points="20 45.9963603 20 60 0 35"></polygon>
                <polygon id="Path-13-Copy" fill="#BECCFA" transform="translate(30.500000, 47.500000) scale(-1, 1) translate(-30.500000, -47.500000) " points="41 45.9963603 41 60 20 35"></polygon>
                <polygon id="Path-14" fill="#BECCFA" points="0 32.1778457 20 25 20 43"></polygon>
                <polygon id="Path-14-Copy" fill="#7B99F5" transform="translate(30.500000, 34.000000) scale(-1, 1) translate(-30.500000, -34.000000) " points="20 32.152837 41 25 41 43"></polygon>
            </g>
        </g>
    </g>
</svg>